<svg id="settings" xmlns="http://www.w3.org/2000/svg" viewBox="0 0 512 512" xml:space="preserve"><path  d="M512 233.108v45.785c0 13.186-9.814 24.602-22.821 26.55a1684.418 1684.418 0 0 1-29.384 4.112c-1.195.155-2.164.968-2.463 2.068a208.097 208.097 0 0 1-19.641 47.387c-.574 1.004-.466 2.259.275 3.216a1600.693 1600.693 0 0 1 17.872 23.693c7.83 10.579 6.694 25.594-2.642 34.918l-32.36 32.36c-9.336 9.336-24.339 10.472-34.918 2.642a1638.838 1638.838 0 0 1-23.693-17.872c-.956-.729-2.212-.837-3.216-.275a207.873 207.873 0 0 1-47.387 19.641c-1.1.299-1.913 1.267-2.068 2.463a1663.307 1663.307 0 0 1-4.112 29.383C303.494 502.186 292.078 512 278.88 512h-45.76c-13.197 0-24.614-9.814-26.562-22.821a1632.514 1632.514 0 0 1-4.112-29.383c-.155-1.195-.968-2.164-2.068-2.463a207.873 207.873 0 0 1-47.387-19.641c-.992-.562-2.259-.466-3.216.275a1644.365 1644.365 0 0 1-23.693 17.872c-10.579 7.83-25.582 6.694-34.918-2.642l-32.36-32.36c-9.336-9.324-10.472-24.339-2.642-34.918a1575.3 1575.3 0 0 1 17.872-23.693c.741-.956.849-2.212.275-3.216a208.321 208.321 0 0 1-19.641-47.387c-.299-1.1-1.267-1.913-2.463-2.068a1587.667 1587.667 0 0 1-29.384-4.112C9.814 303.494 0 292.078 0 278.892v-45.785c0-13.186 9.814-24.602 22.821-26.55a1585.29 1585.29 0 0 1 29.384-4.112c1.195-.155 2.164-.968 2.463-2.068a208.321 208.321 0 0 1 19.641-47.387c.574-1.004.466-2.259-.275-3.216a1559.28 1559.28 0 0 1-17.872-23.693c-7.83-10.579-6.694-25.582 2.642-34.918l32.36-32.36c9.324-9.336 24.339-10.472 34.918-2.642a1638.838 1638.838 0 0 1 23.693 17.872c.956.729 2.223.849 3.216.275a207.873 207.873 0 0 1 47.387-19.641c1.1-.299 1.913-1.267 2.068-2.463a1633.894 1633.894 0 0 1 4.112-29.384C208.506 9.814 219.922 0 233.12 0h45.773c13.186 0 24.602 9.814 26.55 22.821a1622.442 1622.442 0 0 1 4.112 29.384c.155 1.195.968 2.164 2.068 2.463a207.873 207.873 0 0 1 47.387 19.641c1.004.574 2.271.466 3.216-.275a1644.365 1644.365 0 0 1 23.693-17.872c10.579-7.83 25.594-6.694 34.918 2.642l32.36 32.36c9.336 9.324 10.472 24.339 2.642 34.918a1595.455 1595.455 0 0 1-17.872 23.693c-.741.956-.849 2.223-.275 3.216a208.097 208.097 0 0 1 19.641 47.387c.299 1.1 1.267 1.913 2.463 2.068a1696.763 1696.763 0 0 1 29.384 4.112c13.006 1.948 22.82 13.364 22.82 26.55zm-23.908 45.784v-45.785c0-1.446-1.052-2.69-2.451-2.905a1530.722 1530.722 0 0 0-28.941-4.052c-10.747-1.399-19.557-9.013-22.414-19.414a183.715 183.715 0 0 0-17.381-41.935c-5.332-9.384-4.507-21.004 2.116-29.611a1553.213 1553.213 0 0 0 17.597-23.323c.849-1.136.705-2.773-.323-3.801l-32.36-32.36c-1.028-1.028-2.666-1.172-3.801-.323a1573.182 1573.182 0 0 0-23.323 17.597c-8.595 6.623-20.227 7.447-29.611 2.116a184.753 184.753 0 0 0-41.935-17.381c-10.388-2.857-18.015-11.667-19.414-22.426a1711.213 1711.213 0 0 0-4.052-28.929c-.203-1.399-1.458-2.451-2.905-2.451H233.12c-1.458 0-2.702 1.052-2.917 2.451a1702.491 1702.491 0 0 0-4.052 28.929c-1.399 10.759-9.025 19.569-19.414 22.426a184.799 184.799 0 0 0-41.935 17.381c-9.384 5.332-21.004 4.507-29.611-2.116a1574.89 1574.89 0 0 0-23.323-17.597c-1.148-.849-2.773-.705-3.801.323l-32.36 32.36c-1.028 1.028-1.172 2.654-.323 3.801a1590.662 1590.662 0 0 0 17.597 23.323c6.623 8.595 7.447 20.227 2.116 29.611a183.67 183.67 0 0 0-17.381 41.935c-2.857 10.388-11.667 18.015-22.426 19.414a1550.36 1550.36 0 0 0-28.929 4.052c-1.399.215-2.451 1.458-2.451 2.905v45.785c0 1.446 1.052 2.69 2.451 2.905a1530.722 1530.722 0 0 0 28.941 4.052c10.747 1.399 19.557 9.025 22.414 19.414a183.715 183.715 0 0 0 17.381 41.935c5.332 9.384 4.507 21.016-2.116 29.611a1617.002 1617.002 0 0 0-17.597 23.323c-.849 1.148-.705 2.773.323 3.801l32.36 32.36c1.028 1.028 2.654 1.16 3.801.323a1567.961 1567.961 0 0 0 23.323-17.597 26.887 26.887 0 0 1 16.413-5.607c4.531 0 9.085 1.148 13.197 3.491a184.753 184.753 0 0 0 41.935 17.381c10.388 2.857 18.015 11.667 19.414 22.426a1711.213 1711.213 0 0 0 4.052 28.929c.215 1.399 1.458 2.451 2.917 2.451h45.761c1.458 0 2.714-1.052 2.917-2.451 1.423-9.48 2.773-19.21 4.052-28.929 1.399-10.759 9.025-19.569 19.414-22.426a184.799 184.799 0 0 0 41.935-17.381c9.384-5.332 21.016-4.507 29.611 2.116a1574.89 1574.89 0 0 0 23.323 17.597c1.136.849 2.773.705 3.801-.323l32.36-32.36c1.028-1.028 1.172-2.666.323-3.801a1551.553 1551.553 0 0 0-17.597-23.323c-6.623-8.607-7.448-20.227-2.116-29.611a183.67 183.67 0 0 0 17.381-41.935c2.857-10.4 11.667-18.015 22.426-19.414a1550.36 1550.36 0 0 0 28.929-4.052c1.401-.215 2.453-1.458 2.453-2.905z"/><path d="M488.092 233.108v45.785c0 1.446-1.052 2.69-2.451 2.905a1543.198 1543.198 0 0 1-28.929 4.052c-10.759 1.399-19.569 9.013-22.426 19.414a183.715 183.715 0 0 1-17.381 41.935c-5.332 9.384-4.507 21.004 2.116 29.611a1553.213 1553.213 0 0 1 17.597 23.323c.849 1.136.705 2.773-.323 3.801l-32.36 32.36c-1.028 1.028-2.666 1.172-3.801.323a1573.182 1573.182 0 0 1-23.323-17.597c-8.595-6.623-20.227-7.447-29.611-2.116a184.753 184.753 0 0 1-41.935 17.381c-10.388 2.857-18.015 11.667-19.414 22.426-1.279 9.719-2.63 19.45-4.052 28.929-.203 1.399-1.458 2.451-2.917 2.451H233.12c-1.458 0-2.702-1.052-2.917-2.451a1702.491 1702.491 0 0 1-4.052-28.929c-1.399-10.759-9.025-19.569-19.414-22.426a184.799 184.799 0 0 1-41.935-17.381 26.63 26.63 0 0 0-13.197-3.491 26.885 26.885 0 0 0-16.413 5.607 1574.89 1574.89 0 0 1-23.323 17.597c-1.148.837-2.773.705-3.801-.323l-32.36-32.36c-1.028-1.028-1.172-2.654-.323-3.801a1615.203 1615.203 0 0 1 17.597-23.323c6.623-8.595 7.447-20.227 2.116-29.611a183.67 183.67 0 0 1-17.381-41.935c-2.857-10.388-11.667-18.015-22.414-19.414-9.719-1.267-19.45-2.63-28.941-4.052-1.399-.215-2.451-1.458-2.451-2.905v-45.785c0-1.446 1.052-2.69 2.451-2.905a1543.198 1543.198 0 0 1 28.929-4.052c10.759-1.399 19.569-9.025 22.426-19.414a183.715 183.715 0 0 1 17.381-41.935c5.332-9.384 4.507-21.016-2.116-29.611a1587.058 1587.058 0 0 1-17.597-23.323c-.849-1.148-.705-2.773.323-3.801l32.36-32.36c1.028-1.028 2.654-1.172 3.801-.323a1567.961 1567.961 0 0 1 23.323 17.597c8.607 6.623 20.227 7.447 29.611 2.116a184.753 184.753 0 0 1 41.935-17.381c10.388-2.857 18.015-11.667 19.414-22.426a1711.213 1711.213 0 0 1 4.052-28.929c.215-1.399 1.458-2.451 2.917-2.451h45.773c1.446 0 2.702 1.052 2.905 2.451a1702.491 1702.491 0 0 1 4.052 28.929c1.399 10.759 9.025 19.569 19.414 22.426A184.799 184.799 0 0 1 347.2 95.097c9.384 5.332 21.016 4.507 29.611-2.116a1574.89 1574.89 0 0 1 23.323-17.597c1.136-.849 2.773-.705 3.801.323l32.36 32.36c1.028 1.028 1.172 2.666.323 3.801a1556.665 1556.665 0 0 1-17.597 23.323c-6.623 8.607-7.448 20.227-2.116 29.611a183.67 183.67 0 0 1 17.381 41.935c2.857 10.4 11.667 18.015 22.414 19.414 9.719 1.267 19.45 2.63 28.941 4.052 1.399.215 2.451 1.458 2.451 2.905zM367.139 256c0-61.277-49.861-111.139-111.139-111.139S144.861 194.723 144.861 256 194.723 367.139 256 367.139 367.139 317.277 367.139 256z"/><path d="M256 144.861c61.277 0 111.139 49.861 111.139 111.139S317.277 367.139 256 367.139 144.861 317.277 144.861 256 194.723 144.861 256 144.861zM343.23 256c0-48.092-39.138-87.23-87.23-87.23s-87.23 39.138-87.23 87.23 39.138 87.23 87.23 87.23 87.23-39.138 87.23-87.23z"/></svg>